<?xml version="1.0" encoding="iso-8859-1"?>
<!-- Generator: Adobe Illustrator 19.0.0, SVG Export Plug-In . SVG Version: 6.00 Build 0)  -->
<svg version="1.1" id="Capa_1" xmlns="http://www.w3.org/2000/svg" xmlns:xlink="http://www.w3.org/1999/xlink" x="0px" y="0px"
	 viewBox="0 0 376.804 376.804" style="enable-background:new 0 0 376.804 376.804;" xml:space="preserve">
<path style="fill:#FBCA11;" d="M108.8,156.202h172.8v154c0,20-16.4,36.8-36.8,36.8H94.4c-20,0-36.8-16.4-36.8-36.8v-102.8"/>
<circle style="fill:#FDFDFD;" cx="169.6" cy="229.802" r="30.8"/>
<circle style="fill:#64C9EB;" cx="58" cy="156.202" r="50.8"/>
<g>
	<path style="fill:#231F20;" d="M303.6,23.002c-40.4,0-73.6,31.6-73.6,70v56.8H114.8c-3.2-28.8-27.6-50.8-57.2-50.8
		c-31.6,0-57.6,25.6-57.6,57.6c0,29.6,22.4,54,50.8,57.2v96.8c0,23.6,19.2,43.2,43.2,43.2h150.8c23.6,0,43.2-19.2,43.2-43.2v-154.4
		c0-3.6-2.8-6.4-6.4-6.4h-38.4v-56.8c0-31.6,27.2-57.2,60.4-57.2s60.4,25.6,60.4,57.2v63.2c0,3.6,2.8,6.4,6.4,6.4s6.4-2.8,6.4-6.4
		v-63.2C377.2,54.202,344,23.002,303.6,23.002z M13.2,156.202c0-24.4,20-44.4,44.4-44.4c14,0,26.4,6.4,34.8,16.4
		c-0.4,0-0.4,0.4-0.8,0.4l-42.8,36.4l-14.4-20.8c-2-2.8-6-3.6-8.8-1.6s-3.6,6-1.6,8.8l18.4,26.8c1.2,1.6,2.8,2.4,4.4,2.8
		c0.4,0,0.4,0,0.8,0c1.6,0,2.8-0.4,4-1.6l47.2-40c2,5.2,3.2,10.8,3.2,16.8c0,24.4-20,44.4-44.4,44.4
		C33.2,201.002,13.2,181.002,13.2,156.202z M275.2,310.202c0,16.8-13.6,30.4-30.4,30.4H94.4c-16.8,0-30.4-13.6-30.4-30.4v-96.8
		c26.4-2.8,47.6-24,50.4-50.4h160.4v147.2H275.2z"/>
	<path style="fill:#231F20;" d="M169.6,193.802c-19.6,0-35.6,16-35.6,35.6c0,17.6,12.8,32,29.2,35.2v34.4c0,3.6,2.8,6.4,6.4,6.4
		s6.4-2.8,6.4-6.4v-34.4c16.8-3.2,29.2-17.6,29.2-35.2C205.6,209.802,189.6,193.802,169.6,193.802z M169.6,252.602
		c-12.8,0-22.8-10.4-22.8-22.8c0-12.8,10.4-22.8,22.8-22.8c12.8,0,22.8,10.4,22.8,22.8C192.8,242.202,182.4,252.602,169.6,252.602z"
		/>
</g>
<g>
</g>
<g>
</g>
<g>
</g>
<g>
</g>
<g>
</g>
<g>
</g>
<g>
</g>
<g>
</g>
<g>
</g>
<g>
</g>
<g>
</g>
<g>
</g>
<g>
</g>
<g>
</g>
<g>
</g>
</svg>
