<?xml version="1.0" standalone="no"?><svg xmlns="http://www.w3.org/2000/svg" viewBox="0 0 1440 320"><path fill="#de4463" fill-opacity="1" d="M0,0L34.3,21.3C68.6,43,137,85,206,128C274.3,171,343,213,411,197.3C480,181,549,107,617,90.7C685.7,75,754,117,823,160C891.4,203,960,245,1029,240C1097.1,235,1166,181,1234,160C1302.9,139,1371,149,1406,154.7L1440,160L1440,320L1405.7,320C1371.4,320,1303,320,1234,320C1165.7,320,1097,320,1029,320C960,320,891,320,823,320C754.3,320,686,320,617,320C548.6,320,480,320,411,320C342.9,320,274,320,206,320C137.1,320,69,320,34,320L0,320Z"></path></svg>